#N canvas 672 465 2512 695 12;
#X floatatom 196 108 5 0 0 0 - - - 0;
#X obj 71 38 vsl 15 120 0 1 0 0 empty empty empty 0 -9 0 12 #ffe3c6 #000000 #000000 0 1;
#X obj 196 199 *~;
#X obj 71 206 line~;
#X obj 71 237 s~ volume;
#X msg 71 176 \$1 100;
#X obj 262 63 vsl 15 120 0 1 0 0 empty empty empty 0 -9 0 12 #feffc6 #000000 #000000 0 1;
#X obj 196 62 * 1;
#X obj 479 308 dac~;
#X obj 483 265 *~ 0.3;
#X floatatom 586 8 5 0 0 0 - - - 0;
#X obj 196 145 TAM_sine;
#X floatatom 300 109 5 0 0 0 - - - 0;
#X obj 300 200 *~;
#X obj 366 64 vsl 15 120 0 1 0 0 empty empty empty 0 -9 0 12 #feffc6 #000000 #000000 0 1;
#X obj 300 146 TAM_sine;
#X obj 300 63 * 2;
#X floatatom 397 108 5 0 0 0 - - - 0;
#X obj 397 199 *~;
#X obj 463 63 vsl 15 120 0 1 0 0 empty empty empty 0 -9 0 12 #feffc6 #000000 #000000 0 1;
#X obj 397 145 TAM_sine;
#X obj 397 62 * 3;
#X floatatom 491 106 5 0 0 0 - - - 0;
#X obj 491 197 *~;
#X obj 557 61 vsl 15 120 0 1 0 0 empty empty empty 0 -9 0 12 #feffc6 #000000 #000000 0 1;
#X obj 491 143 TAM_sine;
#X floatatom 595 107 5 0 0 0 - - - 0;
#X obj 595 198 *~;
#X obj 661 62 vsl 15 120 0 1 0 0 empty empty empty 0 -9 0 12 #feffc6 #000000 #000000 0 1;
#X obj 595 144 TAM_sine;
#X floatatom 692 106 5 0 0 0 - - - 0;
#X obj 692 197 *~;
#X obj 758 61 vsl 15 120 0 1 0 0 empty empty empty 0 -9 0 12 #feffc6 #000000 #000000 0 1;
#X obj 692 143 TAM_sine;
#X obj 491 60 * 4;
#X obj 595 61 * 5;
#X obj 692 60 * 6;
#X floatatom 790 106 5 0 0 0 - - - 0;
#X obj 790 197 *~;
#X obj 856 61 vsl 15 120 0 1 0 0 empty empty empty 0 -9 0 12 #feffc6 #000000 #000000 0 1;
#X obj 790 143 TAM_sine;
#X floatatom 887 105 5 0 0 0 - - - 0;
#X obj 889 198 *~;
#X obj 953 60 vsl 15 120 0 1 0 0 empty empty empty 0 -9 0 12 #feffc6 #000000 #000000 0 1;
#X obj 887 142 TAM_sine;
#X obj 790 60 * 7;
#X obj 887 59 * 8;
#X connect 0 0 11 0;
#X connect 1 0 5 0;
#X connect 2 0 9 0;
#X connect 3 0 4 0;
#X connect 5 0 3 0;
#X connect 6 0 2 1;
#X connect 7 0 0 0;
#X connect 9 0 8 0;
#X connect 9 0 8 1;
#X connect 10 0 7 0;
#X connect 10 0 16 0;
#X connect 10 0 21 0;
#X connect 10 0 34 0;
#X connect 10 0 35 0;
#X connect 10 0 36 0;
#X connect 10 0 45 0;
#X connect 10 0 46 0;
#X connect 11 0 2 0;
#X connect 12 0 15 0;
#X connect 13 0 9 0;
#X connect 14 0 13 1;
#X connect 15 0 13 0;
#X connect 16 0 12 0;
#X connect 17 0 20 0;
#X connect 18 0 9 0;
#X connect 19 0 18 1;
#X connect 20 0 18 0;
#X connect 21 0 17 0;
#X connect 22 0 25 0;
#X connect 23 0 9 0;
#X connect 24 0 23 1;
#X connect 25 0 23 0;
#X connect 26 0 29 0;
#X connect 27 0 9 0;
#X connect 28 0 27 1;
#X connect 29 0 27 0;
#X connect 30 0 33 0;
#X connect 31 0 9 0;
#X connect 32 0 31 1;
#X connect 33 0 31 0;
#X connect 34 0 22 0;
#X connect 35 0 26 0;
#X connect 36 0 30 0;
#X connect 37 0 40 0;
#X connect 38 0 9 0;
#X connect 39 0 38 1;
#X connect 40 0 38 0;
#X connect 41 0 44 0;
#X connect 42 0 9 0;
#X connect 43 0 42 1;
#X connect 44 0 42 0;
#X connect 45 0 37 0;
#X connect 46 0 41 0;
