#N canvas 4 100 3200 1820 12;
#X obj 115 104 osc~ 3;
#X obj 115 266 outlet~;
#X obj 115 49 inlet;
#X obj 115 228 *~;
#X obj 199 190 r~ volume;
#X obj 200 50 random 100;
#X obj 200 79 / 100;
#X obj 115 188 *~;
#X obj 200 17 r changetimbre;
#X obj 287 189 outlet;
#X obj 287 161 line;
#X floatatom 282 107 5 0 0 0 - - - 0;
#X msg 200 109 \$1 1000;
#X obj 200 155 line~;
#X connect 0 0 7 0;
#X connect 2 0 0 0;
#X connect 3 0 1 0;
#X connect 4 0 3 1;
#X connect 5 0 6 0;
#X connect 6 0 12 0;
#X connect 6 0 11 0;
#X connect 7 0 3 0;
#X connect 8 0 5 0;
#X connect 10 0 9 0;
#X connect 12 0 10 0;
#X connect 12 0 13 0;
#X connect 13 0 7 1;
