#N canvas 4 100 3200 1820 12;
#X obj 43 45 vsl 15 120 0 1 0 0 empty empty empty 0 -9 0 12 #ffe3c6 #000000 #000000 0 1;
#X obj 43 222 line~;
#X obj 43 253 s~ volume;
#X msg 43 192 \$1 100;
#X obj 187 76 mtof;
#X obj 190 43 hsl 120 15 0 127 0 0 empty empty empty -2 -10 0 12 #feffc6 #000000 #000000 0 1;
#X obj 187 206 bp~ 844 30;
#X obj 290 207 bp~ 1210 80, f 12;
#X obj 396 206 bp~ 2700 100;
#X obj 336 285 lop~ 10000;
#X obj 336 314 dac~;
#X obj 208 238 *~;
#X obj 336 240 *~;
#X obj 459 239 *~;
#N canvas 4 100 3200 1820 formants 0;
#X obj 167 168 unpack f f f f f f f f f, f 38;
#X msg 234 63 500 30 6 2300 30 4 2500 60 2;
#X msg 239 88 340 30 9 2130 80 2 2650 100 0;
#X msg 249 114 535 30 7 875 80 3 2720 100 4;
#X msg 260 139 220 25 4 600 25 4 2500 60 2;
#X obj 63 255 line;
#X msg 63 229 \$1 500;
#X obj 63 303 outlet;
#X obj 120 254 line;
#X msg 120 228 \$1 500;
#X obj 120 302 outlet;
#X msg 177 228 \$1 500;
#X obj 177 254 line~;
#X obj 177 302 outlet~;
#X obj 250 255 line;
#X msg 250 229 \$1 500;
#X obj 250 303 outlet;
#X obj 307 254 line;
#X msg 307 228 \$1 500;
#X obj 307 302 outlet;
#X msg 364 228 \$1 500;
#X obj 364 254 line~;
#X obj 364 302 outlet~;
#X obj 436 254 line;
#X msg 436 228 \$1 500;
#X obj 436 302 outlet;
#X obj 493 253 line;
#X msg 493 227 \$1 500;
#X obj 493 301 outlet;
#X msg 550 227 \$1 500;
#X obj 550 253 line~;
#X obj 550 301 outlet~;
#X obj 113 6 r a;
#X obj 112 31 r e;
#X obj 112 57 r i;
#X obj 111 83 r o;
#X obj 111 110 r u;
#X obj 507 21 r formant_f1;
#X obj 601 20 r formant_f2;
#X obj 694 20 r formant_f3;
#X obj 509 105 pack f f f;
#X obj 542 61 t b f;
#X obj 591 62 t b f;
#X msg 509 142 \$1 30 6 \$2 80 5 \$3 100 4;
#X msg 227 38 844 30 6 1210 80 6 2700 100 4;
#X connect 0 0 6 0;
#X connect 0 1 9 0;
#X connect 0 2 11 0;
#X connect 0 3 15 0;
#X connect 0 4 18 0;
#X connect 0 5 20 0;
#X connect 0 6 24 0;
#X connect 0 7 27 0;
#X connect 0 8 29 0;
#X connect 1 0 0 0;
#X connect 2 0 0 0;
#X connect 3 0 0 0;
#X connect 4 0 0 0;
#X connect 5 0 7 0;
#X connect 6 0 5 0;
#X connect 8 0 10 0;
#X connect 9 0 8 0;
#X connect 11 0 12 0;
#X connect 12 0 13 0;
#X connect 14 0 16 0;
#X connect 15 0 14 0;
#X connect 17 0 19 0;
#X connect 18 0 17 0;
#X connect 20 0 21 0;
#X connect 21 0 22 0;
#X connect 23 0 25 0;
#X connect 24 0 23 0;
#X connect 26 0 28 0;
#X connect 27 0 26 0;
#X connect 29 0 30 0;
#X connect 30 0 31 0;
#X connect 32 0 44 0;
#X connect 33 0 1 0;
#X connect 34 0 2 0;
#X connect 35 0 3 0;
#X connect 36 0 4 0;
#X connect 37 0 40 0;
#X connect 38 0 41 0;
#X connect 39 0 42 0;
#X connect 40 0 43 0;
#X connect 41 0 40 0;
#X connect 41 1 40 1;
#X connect 42 0 40 0;
#X connect 42 1 40 2;
#X connect 43 0 0 0;
#X connect 44 0 0 0;
#X restore 415 123 pd formants;
#X f 19;
#X obj 386 39 bng 19 250 50 0 a empty empty 0 -10 0 12 #ffc7c6 #000000 #000000;
#X text 388 16 a;
#X obj 425 39 bng 19 250 50 0 e empty empty 0 -10 0 12 #c6ffc7 #000000 #000000;
#X text 428 16 e;
#X obj 462 39 bng 19 250 50 0 i empty empty 0 -10 0 12 #feffc6 #000000 #000000;
#X text 465 16 i;
#X obj 499 39 bng 19 250 50 0 o empty empty 0 -10 0 12 #e3c6ff #000000 #000000;
#X text 502 16 o;
#X obj 537 39 bng 19 250 50 0 u empty empty 0 -10 0 12 #c6feff #000000 #000000;
#X text 540 16 u;
#X obj 187 112 TAM_saw;
#X obj 615 40 nbx 5 17 -1e+37 1e+37 0 0 formant_f1 empty Formant\ 1 0 -10 0 12 #ffc7c6 #000000 #000000 0 256;
#X obj 691 41 nbx 5 17 -1e+37 1e+37 0 0 formant_f2 empty Formant\ 2 0 -10 0 12 #ffc7c6 #000000 #000000 0 256;
#X obj 769 42 nbx 5 17 -1e+37 1e+37 0 0 formant_f3 empty Formant\ 3 0 -10 0 12 #ffc7c6 #000000 #000000 0 256;
#X connect 0 0 3 0;
#X connect 1 0 2 0;
#X connect 3 0 1 0;
#X connect 4 0 25 0;
#X connect 5 0 4 0;
#X connect 6 0 11 0;
#X connect 7 0 12 0;
#X connect 8 0 13 0;
#X connect 9 0 10 0;
#X connect 9 0 10 1;
#X connect 11 0 9 0;
#X connect 12 0 9 0;
#X connect 13 0 9 0;
#X connect 14 0 6 1;
#X connect 14 1 6 2;
#X connect 14 2 11 1;
#X connect 14 3 7 1;
#X connect 14 4 7 2;
#X connect 14 5 12 1;
#X connect 14 6 8 1;
#X connect 14 7 8 2;
#X connect 14 8 13 1;
#X connect 25 0 6 0;
#X connect 25 0 7 0;
#X connect 25 0 8 0;
