#N canvas 4 100 3200 1820 12;
#X floatatom 379 112 5 0 0 0 - - - 0;
#X obj 57 182 vsl 15 120 0 1 0 0 empty empty empty 0 -9 0 12 #ffe3c6 #000000 #000000 0 1;
#X obj 57 356 line~;
#X obj 57 387 s~ volume;
#X msg 57 326 \$1 100;
#X obj 455 72 vsl 15 120 0 1 0 0 empty empty empty 0 -9 0 12 #feffc6 #000000 #000000 0 1;
#X obj 379 66 * 1;
#X obj 811 322 dac~;
#X obj 815 279 *~ 0.3;
#X floatatom 826 14 5 0 0 0 - - - 0;
#X obj 1249 322 s changetimbre;
#X obj 1249 291 bng 19 250 50 0 empty empty empty 0 -10 0 12 #fcfcfc #000000 #000000;
#X obj 134 161 envgen 200 140 1 0  ;
#X obj 132 29 tgl 19 0 empty empty empty 0 -10 0 12 #ffe3c6 #000000 #000000 0 1;
#X msg 143 132 duration 1500;
#X obj 132 56 metro 1500;
#X obj 364 147 TAM_partial;
#X obj 379 213 *~;
#X floatatom 494 113 5 0 0 0 - - - 0;
#X obj 570 73 vsl 15 120 0 1 0 0 empty empty empty 0 -9 0 12 #feffc6 #000000 #000000 0 1;
#X obj 479 148 TAM_partial;
#X obj 494 214 *~;
#X obj 494 67 * 2;
#X obj 143 107 loadbang;
#X floatatom 618 115 5 0 0 0 - - - 0;
#X obj 694 75 vsl 15 120 0 1 0 0 empty empty empty 0 -9 0 12 #feffc6 #000000 #000000 0 1;
#X obj 603 150 TAM_partial;
#X obj 618 216 *~;
#X obj 618 69 * 3;
#X floatatom 732 115 5 0 0 0 - - - 0;
#X obj 808 75 vsl 15 120 0 1 0 0 empty empty empty 0 -9 0 12 #feffc6 #000000 #000000 0 1;
#X obj 717 150 TAM_partial;
#X obj 732 216 *~;
#X obj 732 69 * 4;
#X floatatom 852 116 5 0 0 0 - - - 0;
#X obj 928 76 vsl 15 120 0 1 0 0 empty empty empty 0 -9 0 12 #feffc6 #000000 #000000 0 1;
#X obj 837 151 TAM_partial;
#X obj 852 217 *~;
#X floatatom 967 117 5 0 0 0 - - - 0;
#X obj 1043 77 vsl 15 120 0 1 0 0 empty empty empty 0 -9 0 12 #feffc6 #000000 #000000 0 1;
#X obj 952 152 TAM_partial;
#X obj 967 218 *~;
#X floatatom 1091 119 5 0 0 0 - - - 0;
#X obj 1167 79 vsl 15 120 0 1 0 0 empty empty empty 0 -9 0 12 #feffc6 #000000 #000000 0 1;
#X obj 1076 154 TAM_partial;
#X obj 1091 220 *~;
#X floatatom 1205 119 5 0 0 0 - - - 0;
#X obj 1281 79 vsl 15 120 0 1 0 0 empty empty empty 0 -9 0 12 #feffc6 #000000 #000000 0 1;
#X obj 1190 154 TAM_partial;
#X obj 1205 220 *~;
#X obj 852 70 * 5;
#X obj 967 71 * 6;
#X obj 1091 73 * 7;
#X obj 1205 73 * 8;
#X obj 143 82 s changetimbre;
#X text 150 32 ...or use envelope;
#X text 873 14 fundamental frequency;
#X text 12 140 Change volume;
#X text 25 154 here...;
#X connect 0 0 16 0;
#X connect 1 0 4 0;
#X connect 2 0 3 0;
#X connect 4 0 2 0;
#X connect 5 0 17 1;
#X connect 6 0 0 0;
#X connect 8 0 7 0;
#X connect 8 0 7 1;
#X connect 9 0 6 0;
#X connect 9 0 22 0;
#X connect 9 0 28 0;
#X connect 9 0 33 0;
#X connect 9 0 50 0;
#X connect 9 0 51 0;
#X connect 9 0 52 0;
#X connect 9 0 53 0;
#X connect 11 0 10 0;
#X connect 12 0 2 0;
#X connect 13 0 15 0;
#X connect 14 0 12 0;
#X connect 15 0 12 0;
#X connect 15 0 54 0;
#X connect 16 0 17 0;
#X connect 16 1 5 0;
#X connect 17 0 8 0;
#X connect 18 0 20 0;
#X connect 19 0 21 1;
#X connect 20 0 21 0;
#X connect 20 1 19 0;
#X connect 21 0 8 0;
#X connect 22 0 18 0;
#X connect 23 0 14 0;
#X connect 24 0 26 0;
#X connect 25 0 27 1;
#X connect 26 0 27 0;
#X connect 26 1 25 0;
#X connect 27 0 8 0;
#X connect 28 0 24 0;
#X connect 29 0 31 0;
#X connect 30 0 32 1;
#X connect 31 0 32 0;
#X connect 31 1 30 0;
#X connect 32 0 8 0;
#X connect 33 0 29 0;
#X connect 34 0 36 0;
#X connect 35 0 37 1;
#X connect 36 0 37 0;
#X connect 36 1 35 0;
#X connect 37 0 8 0;
#X connect 38 0 40 0;
#X connect 39 0 41 1;
#X connect 40 0 41 0;
#X connect 40 1 39 0;
#X connect 41 0 8 0;
#X connect 42 0 44 0;
#X connect 43 0 45 1;
#X connect 44 0 45 0;
#X connect 44 1 43 0;
#X connect 45 0 8 0;
#X connect 46 0 48 0;
#X connect 47 0 49 1;
#X connect 48 0 49 0;
#X connect 48 1 47 0;
#X connect 49 0 8 0;
#X connect 50 0 34 0;
#X connect 51 0 38 0;
#X connect 52 0 42 0;
#X connect 53 0 46 0;
