#N canvas 317 92 1262 721 12;
#X obj 144 70 noise~;
#X obj 144 186 *~;
#X obj 234 40 vsl 15 120 0 1 0 0 empty empty empty 0 -9 0 12 #fcfcfc #000000 #000000 0 1;
#X obj 138 253 dac~;
#X obj 276 220 metro 100;
#X obj 276 185 tgl 19 0 empty empty empty 0 -10 0 12 #fcfcfc #000000 #000000 0 1;
#N canvas 4 52 1920 989 fft 0;
#X obj 163 92 inlet~;
#X obj 298 92 inlet;
#X obj 163 122 rfft~;
#X obj 163 155 *~;
#X obj 195 155 *~;
#X obj 163 185 sqrt~;
#X obj 298 301 tabwrite~ E01-spectrum;
#X obj 163 222 biquad~ 0 0 0 0 1;
#X text 53 122 Fourier series;
#X text 36 10 This subpatch computes the spectrum of the incoming signal with a (rectangular windowed) FFT. FFTs aren't properly introduced until much later., f 66;
#X text 31 93 signal to analyze;
#X text 355 87 "bang" into this inlet to graph it, f 18;
#X obj 354 214 block~ 4096;
#X text 79 214 delay two samples for better graphing, f 10;
#X text 86 162 calculate magnitude, f 9;
#X text 351 174 FFT Window size of 4096, f 12;
#X connect 0 0 2 0;
#X connect 1 0 6 0;
#X connect 2 0 3 0;
#X connect 2 0 3 1;
#X connect 2 1 4 0;
#X connect 2 1 4 1;
#X connect 3 0 5 0;
#X connect 4 0 5 0;
#X connect 5 0 7 0;
#X connect 7 0 6 0;
#X restore 237 250 pd fft;
#N canvas 0 0 450 300 (subpatch) 0;
#X array E01-spectrum 90 float 0;
#X coords 0 50 89 0 199 100 1 0 0;
#X restore 396 171 graph;
#X obj 144 142 lop~;
#X floatatom 169 112 5 0 0 0 - - - 0;
#X connect 0 0 8 0;
#X connect 1 0 3 0;
#X connect 1 0 3 1;
#X connect 1 0 6 0;
#X connect 2 0 1 1;
#X connect 4 0 6 1;
#X connect 5 0 4 0;
#X connect 8 0 1 0;
#X connect 9 0 8 1;
#X coords 0 0 0.5 0.5 0 0 0;
