#N canvas 4 100 3200 1820 12;
#X obj 427 408 dac~;
#X obj 107 200 vsl 15 120 0 1 0 0 empty empty empty 0 -9 0 12 #ffe3c6 #000000 #000000 0 1;
#X floatatom 427 199 5 0 0 0 - - - 0;
#X obj 427 281 *~;
#X obj 107 377 line~;
#X obj 107 408 s~ volume;
#X msg 107 347 \$1 100;
#X obj 220 239 tgl 20 0 empty empty empty 0 -10 0 12 #ffc7c6 #000000 #000000 0 1;
#X obj 220 265 bng 19 250 50 0 empty empty empty 0 -10 0 12 #fcfcfc #000000 #000000;
#X obj 222 295 envgen 150 100 1 0  ;
#X obj 219 408 line~;
#X obj 427 374 vcf~;
#X floatatom 503 333 5 0 0 0 - - - 0;
#X obj 439 334 *~ 5000;
#X obj 223 33 tgl 20 0 empty empty empty 0 -10 0 12 #ffc7c6 #000000 #000000 0 1;
#X obj 223 59 bng 19 250 50 0 empty empty empty 0 -10 0 12 #fcfcfc #000000 #000000;
#X obj 224 84 envgen 150 100 1 0  ;
#X obj 223 196 line~;
#X obj 270 196 s~ env_volume;
#X obj 440 254 r~ env_volume;
#X obj 266 408 s~ env_filter;
#X obj 439 308 r~ env_filter;
#X obj 252 241 metro 5000;
#X msg 251 265 duration 5000;
#X obj 255 35 metro 200;
#X msg 254 59 duration 200;
#X obj 427 115 key;
#X obj 427 139 clip 49 57;
#X obj 427 164 mtof;
#X obj 427 228 TAM_saw;
#X obj 544 332 loadmess 3;
#X obj 328 35 loadbang;
#X obj 331 241 loadbang;
#X text 447 67 play with keys 1-9;
#X obj 471 198 loadmess 200;
#X text 66 172 Turn on volume;
#X text 446 48 Turn on metros;
#X connect 1 0 6 0;
#X connect 2 0 29 0;
#X connect 3 0 11 0;
#X connect 4 0 5 0;
#X connect 6 0 4 0;
#X connect 7 0 22 0;
#X connect 8 0 9 0;
#X connect 9 0 10 0;
#X connect 10 0 20 0;
#X connect 11 0 0 0;
#X connect 11 0 0 1;
#X connect 11 1 0 0;
#X connect 11 1 0 1;
#X connect 12 0 11 2;
#X connect 13 0 11 1;
#X connect 14 0 24 0;
#X connect 15 0 16 0;
#X connect 16 0 17 0;
#X connect 17 0 18 0;
#X connect 19 0 3 1;
#X connect 21 0 13 0;
#X connect 22 0 8 0;
#X connect 23 0 9 0;
#X connect 24 0 15 0;
#X connect 25 0 16 0;
#X connect 26 0 27 0;
#X connect 27 0 28 0;
#X connect 28 0 2 0;
#X connect 29 0 3 0;
#X connect 30 0 12 0;
#X connect 31 0 25 0;
#X connect 32 0 23 0;
#X connect 34 0 2 0;
