#N canvas 128 153 1482 659 12;
#X obj 117 47 phasor~;
#X obj 142 77 *~ -1;
#X obj 142 105 +~ 1;
#X obj 117 134 min~;
#X obj 117 166 *~ 4;
#X obj 117 196 -~ 1;
#X obj 117 13 inlet;
#X obj 109 325 outlet~;
#X obj 117 283 *~;
#X obj 174 248 r~ volume;
#X connect 0 0 1 0;
#X connect 0 0 3 0;
#X connect 1 0 2 0;
#X connect 2 0 3 1;
#X connect 3 0 4 0;
#X connect 4 0 5 0;
#X connect 5 0 8 0;
#X connect 6 0 0 0;
#X connect 8 0 7 0;
#X connect 9 0 8 1;
