#N canvas 250 164 1482 659 12;
#X obj 115 254 outlet~;
#X obj 117 49 inlet;
#X obj 117 104 osc~;
#X obj 168 162 r~ volume;
#X obj 116 213 *~;
#X connect 1 0 2 0;
#X connect 2 0 4 0;
#X connect 3 0 4 1;
#X connect 4 0 0 0;
