#N canvas 128 153 1482 659 12;
#X obj 117 129 -~ 1;
#X obj 117 97 *~ 2;
#X obj 117 63 phasor~;
#X obj 117 22 inlet;
#X obj 116 244 outlet~;
#X obj 117 212 *~;
#X obj 171 180 r~ volume;
#X connect 0 0 5 0;
#X connect 1 0 0 0;
#X connect 2 0 1 0;
#X connect 3 0 2 0;
#X connect 5 0 4 0;
#X connect 6 0 5 1;
