#N canvas 256 171 1482 659 12;
#X obj 94 59 phasor~;
#X obj 94 135 *~ 2;
#X obj 94 169 -~ 1;
#X obj 94 18 inlet;
#X obj 93 301 outlet~;
#X obj 94 270 *~;
#X obj 160 237 r~ volume;
#X msg 164 57 0.5;
#X obj 164 16 loadbang;
#X obj 94 101 expr~ $v1 < $v2;
#X connect 0 0 9 0;
#X connect 1 0 2 0;
#X connect 2 0 5 0;
#X connect 3 0 0 0;
#X connect 5 0 4 0;
#X connect 6 0 5 1;
#X connect 7 0 9 1;
#X connect 8 0 7 0;
#X connect 9 0 1 0;
