#N canvas 4 52 3200 1820 12;
#X floatatom 416 173 5 0 0 0 - - - 0;
#X obj 694 357 dac~;
#X obj 54 52 vsl 20 120 0 1 0 0 empty empty empty 0 -9 0 12 #ffc7c6 #000000 #000000 0 1;
#X floatatom 594 170 5 0 0 0 - - - 0;
#X floatatom 771 169 5 0 0 0 - - - 0;
#X floatatom 986 169 5 0 0 0 - - - 0;
#X obj 416 279 *~;
#X obj 186 404 tgl 25 0 empty empty empty 0 -10 0 12 #feffc6 #000000 #000000 0 1;
#X obj 54 229 line~;
#X msg 54 199 \$1 100;
#X obj 186 473 bng 19 250 50 0 empty empty empty 0 -10 0 12 #fcfcfc #000000 #000000;
#X obj 187 499 envgen 150 100 1 0  ;
#X obj 186 608 line~;
#X obj 232 609 s~ env1;
#X obj 450 253 r~ env1;
#X obj 416 204 TAM_sine;
#X obj 594 203 TAM_saw;
#X obj 771 203 TAM_triangle;
#X obj 986 203 TAM_square;
#X msg 54 590 \; pd dsp 1;
#X obj 54 560 loadbang;
#X obj 267 422 r duration1;
#X obj 354 481 vsl 15 120 100 10000 0 1 empty empty empty 0 -9 0 12 #dfdfdf #000000 #000000 0 1;
#X obj 354 611 s duration1;
#X msg 267 450 duration \$1;
#X floatatom 373 585 5 0 0 0 - - - 0;
#X obj 466 409 tgl 25 0 empty empty empty 0 -10 0 12 #ffc7c6 #000000 #000000 0 1;
#X obj 466 478 bng 19 250 50 0 empty empty empty 0 -10 0 12 #fcfcfc #000000 #000000;
#X obj 467 504 envgen 150 100 1 0  ;
#X obj 466 613 line~;
#X obj 634 486 vsl 15 120 100 10000 0 1 empty empty empty 0 -9 0 12 #dfdfdf #000000 #000000 0 1;
#X msg 547 455 duration \$1;
#X floatatom 653 590 5 0 0 0 - - - 0;
#X obj 547 427 r duration2;
#X obj 510 613 s~ env2;
#X obj 634 616 s duration2;
#X obj 752 412 tgl 25 0 empty empty empty 0 -10 0 12 #c6ffc7 #000000 #000000 0 1;
#X obj 752 481 bng 19 250 50 0 empty empty empty 0 -10 0 12 #fcfcfc #000000 #000000;
#X obj 753 507 envgen 150 100 1 0  ;
#X obj 752 616 line~;
#X obj 920 489 vsl 15 120 100 10000 0 1 empty empty empty 0 -9 0 12 #dfdfdf #000000 #000000 0 1;
#X msg 833 458 duration \$1;
#X floatatom 942 593 5 0 0 0 - - - 0;
#X obj 833 430 r duration3;
#X obj 796 616 s~ env3;
#X obj 920 619 s duration3;
#X obj 1037 416 tgl 25 0 empty empty empty 0 -10 0 12 #e3c6ff #000000 #000000 0 1;
#X obj 1037 485 bng 19 250 50 0 empty empty empty 0 -10 0 12 #fcfcfc #000000 #000000;
#X obj 1038 511 envgen 150 100 1 0  ;
#X obj 1037 620 line~;
#X obj 1205 493 vsl 15 120 100 10000 0 1 empty empty empty 0 -9 0 12 #dfdfdf #000000 #000000 0 1;
#X msg 1118 462 duration \$1;
#X floatatom 1227 597 5 0 0 0 - - - 0;
#X obj 1118 434 r duration4;
#X obj 1081 620 s~ env4;
#X obj 1205 623 s duration4;
#X obj 416 149 mtof;
#X obj 353 75 vsl 20 120 30 110 0 0 empty empty empty 0 -9 0 12 #feffc6 #000000 #000000 0 1;
#X obj 594 147 mtof;
#X obj 534 73 vsl 20 120 30 110 0 0 empty empty empty 0 -9 0 12 #ffc7c6 #000000 #000000 0 1;
#X obj 771 146 mtof;
#X obj 716 72 vsl 20 120 30 110 0 0 empty empty empty 0 -9 0 12 #c6ffc7 #000000 #000000 0 1;
#X obj 986 146 mtof;
#X obj 928 72 vsl 20 120 30 110 0 0 empty empty empty 0 -9 0 12 #e3c6ff #000000 #000000 0 1;
#X obj 218 78 vu 19 200 empty empty -1 -10 0 12 #404040 #000000 1 0;
#X obj 743 356 s~ vumeter;
#X obj 127 73 r~ vumeter;
#X obj 128 128 - 100;
#X obj 128 100 env~;
#X obj 186 448 metro;
#X obj 383 75 vsl 15 120 0 1 0 0 empty empty empty 0 -9 0 12 #ffe3c6 #000000 #000000 0 1;
#X obj 54 260 s~ volume;
#X text 336 50 pitch;
#X text 382 50 vol;
#X obj 563 73 vsl 15 120 0 1 0 0 empty empty empty 0 -9 0 12 #ffe3c6 #000000 #000000 0 1;
#X text 562 48 vol;
#X text 517 48 pitch;
#X obj 466 453 metro;
#X obj 745 72 vsl 15 120 0 1 0 0 empty empty empty 0 -9 0 12 #ffe3c6 #000000 #000000 0 1;
#X text 744 47 vol;
#X text 699 47 pitch;
#X obj 958 72 vsl 15 120 0 1 0 0 empty empty empty 0 -9 0 12 #ffe3c6 #000000 #000000 0 1;
#X text 957 47 vol;
#X text 912 47 pitch;
#X obj 752 456 metro;
#X obj 1037 460 metro;
#X text 20 24 Master volume;
#X obj 357 233 line~;
#X msg 357 206 \$1 100;
#X obj 416 233 *~;
#X obj 594 278 *~;
#X obj 535 232 line~;
#X msg 535 205 \$1 100;
#X obj 594 232 *~;
#X obj 626 249 r~ env2;
#X obj 771 278 *~;
#X obj 712 232 line~;
#X msg 712 205 \$1 100;
#X obj 771 232 *~;
#X obj 803 249 r~ env3;
#X obj 986 277 *~;
#X obj 927 231 line~;
#X msg 927 204 \$1 100;
#X obj 986 231 *~;
#X text 354 359 Activate the toggles;
#X text 51 310 Turn on master volume;
#X text 250 339 Turn on pitch \, vol + duration;
#X obj 1018 248 r~ env4;
#X connect 0 0 15 0;
#X connect 2 0 9 0;
#X connect 3 0 16 0;
#X connect 4 0 17 0;
#X connect 5 0 18 0;
#X connect 6 0 1 0;
#X connect 6 0 1 1;
#X connect 6 0 65 0;
#X connect 7 0 69 0;
#X connect 8 0 71 0;
#X connect 9 0 8 0;
#X connect 10 0 11 0;
#X connect 11 0 12 0;
#X connect 12 0 13 0;
#X connect 14 0 6 1;
#X connect 15 0 89 0;
#X connect 16 0 93 0;
#X connect 17 0 98 0;
#X connect 18 0 103 0;
#X connect 20 0 19 0;
#X connect 21 0 24 0;
#X connect 21 0 69 1;
#X connect 22 0 25 0;
#X connect 24 0 11 0;
#X connect 25 0 23 0;
#X connect 26 0 77 0;
#X connect 27 0 28 0;
#X connect 28 0 29 0;
#X connect 29 0 34 0;
#X connect 30 0 32 0;
#X connect 31 0 28 0;
#X connect 32 0 35 0;
#X connect 33 0 31 0;
#X connect 33 0 77 1;
#X connect 36 0 84 0;
#X connect 37 0 38 0;
#X connect 38 0 39 0;
#X connect 39 0 44 0;
#X connect 40 0 42 0;
#X connect 41 0 38 0;
#X connect 42 0 45 0;
#X connect 43 0 41 0;
#X connect 43 0 84 1;
#X connect 46 0 85 0;
#X connect 47 0 48 0;
#X connect 48 0 49 0;
#X connect 49 0 54 0;
#X connect 50 0 52 0;
#X connect 51 0 48 0;
#X connect 52 0 55 0;
#X connect 53 0 51 0;
#X connect 53 0 85 1;
#X connect 56 0 0 0;
#X connect 57 0 56 0;
#X connect 58 0 3 0;
#X connect 59 0 58 0;
#X connect 60 0 4 0;
#X connect 61 0 60 0;
#X connect 62 0 5 0;
#X connect 63 0 62 0;
#X connect 66 0 68 0;
#X connect 67 0 64 0;
#X connect 68 0 67 0;
#X connect 69 0 10 0;
#X connect 70 0 88 0;
#X connect 74 0 92 0;
#X connect 77 0 27 0;
#X connect 78 0 97 0;
#X connect 81 0 102 0;
#X connect 84 0 37 0;
#X connect 85 0 47 0;
#X connect 87 0 89 1;
#X connect 88 0 87 0;
#X connect 89 0 6 0;
#X connect 90 0 1 0;
#X connect 90 0 1 1;
#X connect 90 0 65 0;
#X connect 91 0 93 1;
#X connect 92 0 91 0;
#X connect 93 0 90 0;
#X connect 94 0 90 1;
#X connect 95 0 65 0;
#X connect 95 0 1 0;
#X connect 95 0 1 1;
#X connect 96 0 98 1;
#X connect 97 0 96 0;
#X connect 98 0 95 0;
#X connect 99 0 95 1;
#X connect 100 0 65 0;
#X connect 100 0 1 1;
#X connect 100 0 1 0;
#X connect 101 0 103 1;
#X connect 102 0 101 0;
#X connect 103 0 100 0;
#X connect 107 0 100 1;
