#N canvas 256 171 1482 659 12;
#X obj 94 59 phasor~;
#X obj 94 135 *~ 2;
#X obj 94 169 -~ 1;
#X floatatom 168 58 5 0.1 0.9 0 - - - 0;
#X obj 94 101 <~ 0.5;
#X obj 94 18 inlet;
#X obj 83 260 outlet~;
#X obj 94 210 *~;
#X obj 163 174 hsl 155 15 0 1 0 0 empty empty empty -2 -10 0 12 #fcfcfc #000000 #000000 0 1;
#X obj 160 137 r volume;
#X connect 0 0 4 0;
#X connect 1 0 2 0;
#X connect 2 0 7 0;
#X connect 3 0 4 1;
#X connect 4 0 1 0;
#X connect 5 0 0 0;
#X connect 7 0 6 0;
#X connect 8 0 7 1;
#X connect 9 0 8 0;
