#N canvas 128 153 1482 659 12;
#X obj 182 129 hsl 155 15 0 1 0 0 empty empty empty -2 -10 0 12 #fcfcfc #000000 #000000 0 1;
#X obj 117 129 -~ 1;
#X obj 117 97 *~ 2;
#X obj 117 63 phasor~;
#X obj 117 22 inlet;
#X obj 105 244 outlet~;
#X obj 179 92 r volume;
#X obj 117 162 *~;
#X connect 0 0 7 1;
#X connect 1 0 7 0;
#X connect 2 0 1 0;
#X connect 3 0 2 0;
#X connect 4 0 3 0;
#X connect 6 0 0 0;
#X connect 7 0 5 0;
