#N canvas 128 153 1482 659 12;
#X obj 197 160 hsl 155 15 0 1 0 0 empty empty empty -2 -10 0 12 #fcfcfc #000000 #000000 0 1;
#X obj 117 47 phasor~;
#X obj 142 77 *~ -1;
#X obj 142 105 +~ 1;
#X obj 117 134 min~;
#X obj 117 166 *~ 4;
#X obj 117 196 -~ 1;
#X obj 117 13 inlet;
#X obj 109 275 outlet~;
#X obj 194 123 r volume;
#X obj 117 233 *~;
#X connect 0 0 10 1;
#X connect 1 0 2 0;
#X connect 1 0 4 0;
#X connect 2 0 3 0;
#X connect 3 0 4 1;
#X connect 4 0 5 0;
#X connect 5 0 6 0;
#X connect 6 0 10 0;
#X connect 7 0 1 0;
#X connect 9 0 0 0;
#X connect 10 0 8 0;
