#N canvas 250 164 1482 659 12;
#X obj 117 104 osc~ 3;
#X obj 105 244 outlet~;
#X obj 117 49 inlet;
#X obj 117 162 *~;
#X obj 182 141 hsl 155 15 0 1 0 0 empty empty empty -2 -10 0 12 #fcfcfc #000000 #000000 0 1;
#X obj 179 104 r volume;
#X connect 0 0 3 0;
#X connect 2 0 0 0;
#X connect 3 0 1 0;
#X connect 4 0 3 1;
#X connect 5 0 4 0;
