#N canvas 256 170 3200 1820 12;
#X floatatom 196 84 5 0 0 0 - - - 0;
#X obj 378 278 dac~;
#X obj 77 99 vsl 15 120 0 1 0 0 empty empty empty 0 -9 0 12 #ffe3c6 #000000 #000000 0 1;
#X floatatom 327 84 5 0 0 0 - - - 0;
#X floatatom 444 84 5 0 0 0 - - - 0;
#X floatatom 595 83 5 0 0 0 - - - 0;
#X obj 196 199 *~;
#X obj 232 173 tgl 15 0 empty empty empty 0 -10 0 12 #feffc6 #000000 #000000 0 1;
#X obj 327 199 *~;
#X obj 362 173 tgl 15 0 empty empty empty 0 -10 0 12 #ffc7c6 #000000 #000000 0 1;
#X obj 444 200 *~;
#X obj 479 174 tgl 15 0 empty empty empty 0 -10 0 12 #c6ffc7 #000000 #000000 0 1;
#X obj 595 199 *~;
#X obj 630 173 tgl 15 0 empty empty empty 0 -10 0 12 #e3c6ff #000000 #000000 0 1;
#X obj 77 270 s volume;
#X text 34 66 overall volume;
#X text 327 42 number input = frequency;
#X msg 76 334 \; pd dsp 1;
#X obj 76 304 loadbang;
#X obj 196 141 TAM_sine_basic;
#X obj 327 141 TAM_saw_basic;
#X obj 444 141 TAM_triangle_basic;
#X obj 595 141 TAM_square_basic;
#X connect 0 0 19 0;
#X connect 2 0 14 0;
#X connect 3 0 20 0;
#X connect 4 0 21 0;
#X connect 5 0 22 0;
#X connect 6 0 1 0;
#X connect 6 0 1 1;
#X connect 7 0 6 1;
#X connect 8 0 1 0;
#X connect 8 0 1 1;
#X connect 9 0 8 1;
#X connect 10 0 1 0;
#X connect 10 0 1 1;
#X connect 11 0 10 1;
#X connect 12 0 1 0;
#X connect 12 0 1 1;
#X connect 13 0 12 1;
#X connect 18 0 17 0;
#X connect 19 0 6 0;
#X connect 20 0 8 0;
#X connect 21 0 10 0;
#X connect 22 0 12 0;
