#N canvas 245 151 1528 700 12;
#X obj 67 256 *~;
#X obj 57 292 dac~;
#X obj 121 193 hsl 120 15 0 1 0 0 empty empty empty -2 -10 0 12 #feffc6 #000000 #000000 0 1;
#N canvas 0 50 450 250 (subpatch) 0;
#X array scope 400 float 4;
#X coords 0 1 399 -1 200 140 1 0 0;
#X restore 399 165 graph;
#X obj 238 290 tabwrite~ scope;
#X obj 254 231 tgl 19 0 empty empty empty 0 -10 0 12 #fcfcfc #000000 #000000 0 1;
#X obj 238 259 metro 100;
#X obj 67 189 osc~;
#X obj 67 156 +~;
#X floatatom 114 127 5 0 0 1 carrier\ frequency - - 0;
#X obj 67 106 *~;
#X obj 116 68 hsl 120 15 0 3000 0 0 empty empty modulator\ amplitude -2 -10 0 12 #feffc6 #000000 #000000 0 1;
#X obj 67 65 osc~;
#X floatatom 67 19 5 0 0 1 modulator\ frequency - - 0;
#X obj 163 260 metro 100;
#X obj 162 231 tgl 19 0 empty empty empty 0 -10 0 12 #fcfcfc #000000 #000000 0 1;
#N canvas 4 52 1920 989 fft 0;
#X obj 163 92 inlet~;
#X obj 298 92 inlet;
#X obj 163 122 rfft~;
#X obj 163 155 *~;
#X obj 195 155 *~;
#X obj 163 185 sqrt~;
#X obj 298 301 tabwrite~ E01-spectrum;
#X obj 163 222 biquad~ 0 0 0 0 1;
#X text 53 122 Fourier series;
#X text 36 10 This subpatch computes the spectrum of the incoming signal with a (rectangular windowed) FFT. FFTs aren't properly introduced until much later., f 66;
#X text 31 93 signal to analyze;
#X text 355 87 "bang" into this inlet to graph it, f 18;
#X obj 354 214 block~ 4096;
#X text 79 214 delay two samples for better graphing, f 10;
#X text 86 162 calculate magnitude, f 9;
#X text 351 174 FFT Window size of 4096, f 12;
#X connect 0 0 2 0;
#X connect 1 0 6 0;
#X connect 2 0 3 0;
#X connect 2 0 3 1;
#X connect 2 1 4 0;
#X connect 2 1 4 1;
#X connect 3 0 5 0;
#X connect 4 0 5 0;
#X connect 5 0 7 0;
#X connect 7 0 6 0;
#X restore 124 290 pd fft;
#N canvas 0 0 450 300 (subpatch) 0;
#X array E01-spectrum 90 float 0;
#X coords 0 500 89 0 199 100 1 0 0;
#X restore 400 32 graph;
#X obj 188 231 loadbang;
#X connect 0 0 1 0;
#X connect 0 0 1 1;
#X connect 0 0 16 0;
#X connect 0 0 4 0;
#X connect 2 0 0 1;
#X connect 5 0 6 0;
#X connect 6 0 4 0;
#X connect 7 0 0 0;
#X connect 8 0 7 0;
#X connect 9 0 8 1;
#X connect 10 0 8 0;
#X connect 11 0 10 1;
#X connect 12 0 10 0;
#X connect 13 0 12 0;
#X connect 14 0 16 1;
#X connect 15 0 14 0;
#X connect 18 0 5 0;
#X connect 18 0 15 0;
