#N canvas 4 100 3200 1820 12;
#X obj 67 336 *~;
#X obj 57 372 dac~;
#N canvas 0 50 450 250 (subpatch) 0;
#X array scope 400 float 4;
#X coords 0 1 399 -1 200 140 1 0 0;
#X restore 606 209 graph;
#X obj 236 370 tabwrite~ scope;
#X obj 236 307 tgl 19 0 empty empty empty 0 -10 0 12 #fcfcfc #000000 #000000 0 1;
#X obj 236 333 metro 100;
#X obj 67 229 osc~;
#X obj 67 176 +~;
#X floatatom 124 147 5 0 0 1 carrier\ frequency - - 0;
#X obj 67 126 *~;
#X obj 67 85 osc~;
#X floatatom 67 39 5 0 0 1 modulator\ frequency - - 0;
#X obj 142 334 metro 100;
#X obj 142 306 tgl 19 0 empty empty empty 0 -10 0 12 #fcfcfc #000000 #000000 0 1;
#N canvas 4 52 1920 989 fft 0;
#X obj 163 92 inlet~;
#X obj 298 92 inlet;
#X obj 163 122 rfft~;
#X obj 163 155 *~;
#X obj 195 155 *~;
#X obj 163 185 sqrt~;
#X obj 298 301 tabwrite~ E01-spectrum;
#X obj 163 222 biquad~ 0 0 0 0 1;
#X text 53 122 Fourier series;
#X text 36 10 This subpatch computes the spectrum of the incoming signal with a (rectangular windowed) FFT. FFTs aren't properly introduced until much later., f 66;
#X text 31 93 signal to analyze;
#X text 355 87 "bang" into this inlet to graph it, f 18;
#X obj 354 214 block~ 4096;
#X text 79 214 delay two samples for better graphing, f 10;
#X text 86 162 calculate magnitude, f 9;
#X text 351 174 FFT Window size of 4096, f 12;
#X connect 0 0 2 0;
#X connect 1 0 6 0;
#X connect 2 0 3 0;
#X connect 2 0 3 1;
#X connect 2 1 4 0;
#X connect 2 1 4 1;
#X connect 3 0 5 0;
#X connect 4 0 5 0;
#X connect 5 0 7 0;
#X connect 7 0 6 0;
#X restore 123 371 pd fft;
#N canvas 0 0 450 300 (subpatch) 0;
#X array E01-spectrum 90 float 0;
#X coords 0 500 89 0 199 100 1 0 0;
#X restore 607 76 graph;
#X obj 407 204 tgl 20 0 empty empty empty 0 -10 0 12 #ffc7c6 #000000 #000000 0 1;
#X obj 407 229 bng 19 250 50 0 empty empty empty 0 -10 0 12 #fcfcfc #000000 #000000;
#X obj 408 254 envgen 150 100 1 0  ;
#X obj 407 363 line~;
#X obj 408 19 tgl 20 0 empty empty empty 0 -10 0 12 #ffc7c6 #000000 #000000 0 1;
#X obj 408 45 bng 19 250 50 0 empty empty empty 0 -10 0 12 #fcfcfc #000000 #000000;
#X obj 410 70 envgen 150 100 1 0  ;
#X obj 408 179 line~;
#X obj 454 364 s~ env_volume;
#X obj 455 179 s~ env_index;
#X obj 125 72 r~ env_index;
#X obj 116 229 r~ env_volume;
#X obj 125 97 *~ 3000;
#X obj 284 16 key;
#X obj 284 42 clip 49 57;
#X obj 284 75 mtof;
#X obj 362 158 t b;
#X msg 438 231 duration 500;
#X obj 439 205 metro 500;
#X msg 439 45 duration 1500;
#X obj 440 20 metro 1500;
#X obj 124 175 * 1.3;
#X obj 362 109 bng 19 250 50 0 empty empty empty 0 -10 0 12 #ffc7c6 #000000 #000000;
#X obj 521 20 loadbang;
#X obj 510 205 loadbang;
#X obj 169 307 loadbang;
#X text 289 459 Play with keys 1-9;
#X connect 0 0 1 0;
#X connect 0 0 1 1;
#X connect 0 0 14 0;
#X connect 0 0 3 0;
#X connect 4 0 5 0;
#X connect 5 0 3 0;
#X connect 6 0 0 0;
#X connect 7 0 6 0;
#X connect 8 0 7 1;
#X connect 8 0 37 0;
#X connect 9 0 7 0;
#X connect 10 0 9 0;
#X connect 11 0 10 0;
#X connect 12 0 14 1;
#X connect 13 0 12 0;
#X connect 16 0 34 0;
#X connect 17 0 18 0;
#X connect 18 0 19 0;
#X connect 19 0 24 0;
#X connect 20 0 36 0;
#X connect 21 0 22 0;
#X connect 22 0 23 0;
#X connect 23 0 25 0;
#X connect 26 0 28 0;
#X connect 27 0 0 1;
#X connect 28 0 9 1;
#X connect 29 0 30 0;
#X connect 29 0 32 0;
#X connect 30 0 31 0;
#X connect 31 0 8 0;
#X connect 32 0 21 0;
#X connect 32 0 17 0;
#X connect 33 0 18 0;
#X connect 34 0 17 0;
#X connect 35 0 22 0;
#X connect 36 0 21 0;
#X connect 37 0 11 0;
#X connect 38 0 32 0;
#X connect 39 0 35 0;
#X connect 40 0 33 0;
#X connect 41 0 4 0;
#X connect 41 0 13 0;
