#N canvas 312 184 1289 622 12;
#X obj 137 149 *~;
#X obj 204 53 osc~;
#X floatatom 137 23 5 0 0 0 - - - 0;
#X floatatom 204 24 5 0 20 0 - - - 0;
#X obj 137 185 *~;
#X obj 129 247 dac~;
#X obj 207 146 hsl 120 15 0 1 0 0 empty empty empty -2 -10 0 12 #feffc6 #000000 #000000 0 1;
#N canvas 0 50 450 250 (subpatch) 0;
#X array scope 400 float 4;
#X coords 0 1 399 -1 200 140 1 0 0;
#X restore 350 123 graph;
#X obj 185 247 tabwrite~ scope;
#X obj 185 191 tgl 19 0 empty empty empty 0 -10 0 12 #fcfcfc #000000 #000000 0 1;
#X obj 204 84 +~ 1;
#X obj 204 110 /~ 2;
#X obj 185 219 metro 100;
#X obj 137 54 phasor~;
#X obj 137 83 *~ 2;
#X obj 137 109 -~ 1;
#X connect 0 0 4 0;
#X connect 1 0 10 0;
#X connect 2 0 13 0;
#X connect 3 0 1 0;
#X connect 4 0 5 0;
#X connect 4 0 5 1;
#X connect 4 0 8 0;
#X connect 6 0 4 1;
#X connect 9 0 12 0;
#X connect 10 0 11 0;
#X connect 11 0 0 1;
#X connect 12 0 8 0;
#X connect 13 0 14 0;
#X connect 14 0 15 0;
#X connect 15 0 0 0;
