#N canvas 312 184 1289 622 12;
#X obj 137 98 osc~;
#X obj 137 149 *~;
#X obj 187 97 osc~;
#X floatatom 137 57 5 0 0 0 - - - 0;
#X floatatom 187 57 5 0 0 0 - - - 0;
#X obj 137 185 *~;
#X obj 129 247 dac~;
#X obj 189 148 hsl 120 15 0 1 0 0 empty empty empty -2 -10 0 12 #feffc6 #000000 #000000 0 1;
#N canvas 0 50 450 250 (subpatch) 0;
#X array scope 400 float 4;
#X coords 0 1 399 -1 200 140 1 0 0;
#X restore 350 123 graph;
#X obj 185 247 tabwrite~ scope;
#X obj 185 191 tgl 19 0 empty empty empty 0 -10 0 12 #fcfcfc #000000 #000000 0 1;
#X obj 185 219 metro 100;
#X connect 0 0 1 0;
#X connect 1 0 5 0;
#X connect 2 0 1 1;
#X connect 3 0 0 0;
#X connect 4 0 2 0;
#X connect 5 0 6 0;
#X connect 5 0 6 1;
#X connect 5 0 9 0;
#X connect 7 0 5 1;
#X connect 10 0 11 0;
#X connect 11 0 9 0;
