#N canvas 285 408 2599 1130 12;
#X obj 65 478 *~;
#X obj 55 514 dac~;
#N canvas 0 50 450 250 (subpatch) 0;
#X array scope 400 float 4;
#X coords 0 1 399 -1 200 140 1 0 0;
#X restore 820 380 graph;
#X obj 234 512 tabwrite~ scope;
#X obj 234 449 tgl 19 0 empty empty empty 0 -10 0 12 #fcfcfc #000000 #000000 0 1;
#X obj 234 475 metro 100;
#X obj 65 404 osc~;
#X obj 65 283 +~;
#X obj 65 167 *~;
#X obj 65 126 osc~;
#X obj 140 448 tgl 19 0 empty empty empty 0 -10 0 12 #fcfcfc #000000 #000000 0 1;
#N canvas 4 52 1920 989 fft 0;
#X obj 163 92 inlet~;
#X obj 298 92 inlet;
#X obj 163 122 rfft~;
#X obj 163 155 *~;
#X obj 195 155 *~;
#X obj 163 185 sqrt~;
#X obj 298 301 tabwrite~ E01-spectrum;
#X obj 163 222 biquad~ 0 0 0 0 1;
#X text 53 122 Fourier series;
#X text 36 10 This subpatch computes the spectrum of the incoming signal with a (rectangular windowed) FFT. FFTs aren't properly introduced until much later., f 66;
#X text 31 93 signal to analyze;
#X text 355 87 "bang" into this inlet to graph it, f 18;
#X obj 354 214 block~ 4096;
#X text 79 214 delay two samples for better graphing, f 10;
#X text 86 162 calculate magnitude, f 9;
#X text 351 174 FFT Window size of 4096, f 12;
#X connect 0 0 2 0;
#X connect 1 0 6 0;
#X connect 2 0 3 0;
#X connect 2 0 3 1;
#X connect 2 1 4 0;
#X connect 2 1 4 1;
#X connect 3 0 5 0;
#X connect 4 0 5 0;
#X connect 5 0 7 0;
#X connect 7 0 6 0;
#X restore 121 513 pd fft;
#N canvas 0 0 450 300 (subpatch) 0;
#X array E01-spectrum 90 float 0;
#X coords 0 500 89 0 199 100 1 0 0;
#X restore 821 247 graph;
#X obj 544 495 s~ env_volume;
#X obj 139 350 r~ env_volume;
#X obj 167 449 loadbang;
#X obj 65 45 nbx 5 25 -1e+37 1e+37 0 0 empty empty Modulator\ frequency 0 -10 0 14 #00faff #000000 #000000 0 256;
#X obj 125 81 hsl 162 19 0 1 0 0 empty empty index 170 10 0 12 #c6feff #000000 #000000 0 1;
#X obj 122 185 nbx 5 25 -1e+37 1e+37 0 0 empty empty Carrier\ frequency 0 -10 0 14 #ff8300 #000000 #000000 0 256;
#X obj 194 282 hsl 162 19 0.1 10 0 0 empty empty ratio 170 10 0 12 #c6ffc7 #000000 #000000 0 1;
#X obj 118 279 *;
#X obj 122 129 * 3000;
#X obj 152 105 r env_index;
#X obj 120 322 hsl 162 19 0 1 0 0 empty empty volume 170 10 0 12 #feffc6 #000000 #000000 0 1;
#X obj 117 378 +~;
#X obj 117 404 clip~ 0 1;
#X obj 141 476 metro 100;
#X obj 191 252 hradio 17 1 0 10 empty empty harmonic\ ratio 175 10 0 12 #c6ffc7 #000000 #000000 0;
#X obj 119 253 + 1;
#X obj 318 225 tgl 19 0 empty empty fix\ ratio 0 -10 0 12 #c6ffc7 #000000 #000000 0 1;
#X obj 149 226 spigot;
#X obj 119 226 t b;
#X obj 544 435 vline~;
#N canvas 0 50 450 250 (subpatch) 0;
#X array adsr 88200 float 4;
#X coords 0 1 88199 0 200 140 1 0 0;
#X restore 1046 379 graph;
#X obj 659 494 tabwrite~ adsr;
#X obj 614 53 vsl 19 162 0 1000 0 0 empty empty A 7 -9 0 12 #e3c6ff #000000 #000000 0 1;
#X obj 650 52 vsl 19 162 0 1000 0 0 empty empty D 7 -9 0 12 #e3c6ff #000000 #000000 0 1;
#X obj 722 52 vsl 19 162 0 1000 0 0 empty empty R 7 -9 0 12 #e3c6ff #000000 #000000 0 1;
#X obj 686 53 vsl 19 162 0 1 0 0 empty empty S 7 -9 0 12 #e3c6ff #000000 #000000 0 1;
#X msg 544 395 1 \$2 \, \$4 \$3 \$2;
#X msg 669 395 0 \$2;
#X obj 544 360 pack f f f f;
#X obj 669 358 pack f f;
#X obj 544 160 tgl 19 0 empty empty empty 0 -10 0 12 #ff8300 #000000 #000000 0 1;
#X obj 544 199 sel 1;
#X msg 1041 245 \; adsr const 0;
#N canvas 4 98 3200 1820 keys 0;
#X obj 118 27 key;
#X obj 118 55 clip 49 57;
#X obj 118 82 mtof;
#X obj 258 22 keyup;
#X msg 258 51 0;
#X obj 155 81 cyclone/onebang;
#X obj 117 131 outlet;
#X obj 173 129 outlet;
#X connect 0 0 1 0;
#X connect 0 0 5 0;
#X connect 1 0 2 0;
#X connect 2 0 6 0;
#X connect 3 0 4 0;
#X connect 4 0 5 1;
#X connect 4 0 7 0;
#X connect 5 0 7 0;
#X restore 360 167 pd keys;
#X text 349 44 choose ADSR \, index and ratio;
#X text 349 61 then play with keys 1-9;
#X obj 202 225 loadmess 1;
#X connect 0 0 3 0;
#X connect 0 0 11 0;
#X connect 0 0 1 1;
#X connect 0 0 1 0;
#X connect 4 0 5 0;
#X connect 5 0 3 0;
#X connect 6 0 0 0;
#X connect 7 0 6 0;
#X connect 8 0 7 0;
#X connect 9 0 8 0;
#X connect 10 0 26 0;
#X connect 14 0 24 1;
#X connect 15 0 4 0;
#X connect 15 0 10 0;
#X connect 16 0 9 0;
#X connect 17 0 21 0;
#X connect 18 0 7 1;
#X connect 18 0 20 1;
#X connect 18 0 31 0;
#X connect 19 0 20 0;
#X connect 20 0 16 0;
#X connect 21 0 8 1;
#X connect 22 0 21 0;
#X connect 23 0 24 0;
#X connect 24 0 25 0;
#X connect 25 0 0 1;
#X connect 26 0 11 1;
#X connect 27 0 28 0;
#X connect 28 0 20 0;
#X connect 29 0 30 1;
#X connect 30 0 20 0;
#X connect 31 0 30 0;
#X connect 32 0 13 0;
#X connect 32 0 34 0;
#X connect 35 0 41 1;
#X connect 36 0 41 2;
#X connect 37 0 42 1;
#X connect 38 0 41 3;
#X connect 39 0 32 0;
#X connect 40 0 32 0;
#X connect 41 0 39 0;
#X connect 42 0 40 0;
#X connect 43 0 44 0;
#X connect 44 0 41 0;
#X connect 44 0 34 0;
#X connect 44 1 42 0;
#X connect 46 0 18 0;
#X connect 46 1 43 0;
#X connect 49 0 29 0;
#X coords 0 0 0.25 0.25 0 0 0;
