#N canvas 292 191 2384 1589 12;
#X obj 190 145 nbx 5 25 -1e+37 1e+37 0 0 Carrier empty Carrier\ frequency 0 -10 0 14 #ff8300 #000000 #000000 0 256;
#X obj 188 624 s~ env_volume;
#X obj 188 574 vline~;
#X obj 258 242 vsl 19 162 0 1000 0 0 empty empty A 7 -9 0 12 #e3c6ff #000000 #000000 0 1;
#X obj 294 241 vsl 19 162 0 1000 0 0 empty empty D 7 -9 0 12 #e3c6ff #000000 #000000 0 1;
#X obj 366 241 vsl 19 162 0 1000 0 0 empty empty R 7 -9 0 12 #e3c6ff #000000 #000000 0 1;
#X obj 330 242 vsl 19 162 0 1 0 0 empty empty S 7 -9 0 12 #e3c6ff #000000 #000000 0 1;
#X msg 188 534 1 \$2 \, \$4 \$3 \$2;
#X msg 313 534 0 \$2;
#X obj 188 499 pack f f f f;
#X obj 313 497 pack f f;
#X obj 188 349 tgl 19 0 empty empty empty 0 -10 0 12 #ff8300 #000000 #000000 0 1;
#X obj 188 388 sel 1;
#X obj 476 622 dac~;
#X obj 520 470 hsl 162 19 0.1 10 0 0 empty empty ratio 170 10 0 12 #c6ffc7 #000000 #000000 0 1;
#X obj 557 498 hsl 162 19 0 1 0 0 empty empty volume 170 10 0 12 #feffc6 #000000 #000000 0 1;
#X obj 517 445 hradio 17 1 0 10 empty empty harmonic\ ratio 175 10 0 12 #c6ffc7 #000000 #000000 0;
#X obj 487 529 TAM_PM;
#X obj 190 34 key;
#X obj 190 62 clip 49 57;
#X obj 190 89 mtof;
#X obj 403 33 keyup;
#X msg 403 62 0;
#X obj 281 62 cyclone/onebang;
#X obj 519 331 hsl 162 19 0.1 10 0 0 empty empty ratio 170 10 0 12 #c6ffc7 #000000 #000000 0 1;
#X obj 556 359 hsl 162 19 0 1 0 0 empty empty volume 170 10 0 12 #feffc6 #000000 #000000 0 1;
#X obj 516 306 hradio 17 1 0 10 empty empty harmonic\ ratio 175 10 0 12 #c6ffc7 #000000 #000000 0;
#X obj 486 390 TAM_PM;
#X obj 512 196 hsl 162 19 0.1 10 0 0 empty empty ratio 170 10 0 12 #c6ffc7 #000000 #000000 0 1;
#X obj 549 224 hsl 162 19 0 1 0 0 empty empty volume 170 10 0 12 #feffc6 #000000 #000000 0 1;
#X obj 509 171 hradio 17 1 0 10 empty empty harmonic\ ratio 175 10 0 12 #c6ffc7 #000000 #000000 0;
#X obj 479 255 TAM_PM;
#X text 506 91 choose ADSR \, volumes and ratios then play with keys 1-9;
#X connect 2 0 1 0;
#X connect 3 0 9 1;
#X connect 4 0 9 2;
#X connect 5 0 10 1;
#X connect 6 0 9 3;
#X connect 7 0 2 0;
#X connect 8 0 2 0;
#X connect 9 0 7 0;
#X connect 10 0 8 0;
#X connect 11 0 12 0;
#X connect 12 0 9 0;
#X connect 12 1 10 0;
#X connect 14 0 17 1;
#X connect 15 0 17 2;
#X connect 16 0 14 0;
#X connect 17 0 13 0;
#X connect 17 0 13 1;
#X connect 18 0 19 0;
#X connect 18 0 23 0;
#X connect 19 0 20 0;
#X connect 20 0 0 0;
#X connect 21 0 22 0;
#X connect 22 0 11 0;
#X connect 22 0 23 1;
#X connect 23 0 11 0;
#X connect 24 0 27 1;
#X connect 25 0 27 2;
#X connect 26 0 24 0;
#X connect 27 0 17 0;
#X connect 28 0 31 1;
#X connect 29 0 31 2;
#X connect 30 0 28 0;
#X connect 31 0 27 0;
