#N canvas 666 371 2071 1361 12;
#X obj 302 237 phasor~;
#X obj 302 306 +~;
#X obj 302 348 cos~;
#X obj 302 186 nbx 5 25 -1e+37 1e+37 0 0 empty empty Modulator\ frequency 0 -10 0 14 #00faff #000000 #000000 0 256;
#X obj 303 34 nbx 5 25 -1e+37 1e+37 0 0 empty Carrier Carrier\ frequency 0 -10 0 14 #ff8300 #000000 #000000 0 256;
#X obj 375 125 hsl 162 19 0.1 10 0 0 empty empty ratio 170 10 0 12 #c6ffc7 #000000 #000000 0 1;
#X obj 302 125 *;
#X obj 450 74 tgl 19 0 empty FixRatio fix\ ratio 0 -10 0 12 #c6ffc7 #000000 #000000 0 1;
#X obj 330 75 spigot;
#X obj 300 75 t b;
#X obj 302 392 *~;
#X obj 302 428 *~;
#X obj 357 389 hsl 162 19 0 1 0 0 empty empty volume 170 10 0 12 #feffc6 #000000 #000000 0 1;
#X obj 302 472 outlet~;
#X obj 652 46 inlet;
#X obj 711 45 inlet;
#X obj 672 381 block~ 1;
#X obj 356 349 inlet~;
#X obj 368 472 delwrite~ \$0-feedback 1;
#X obj 370 263 *~;
#X obj 768 45 inlet;
#X obj 370 235 delread~ \$0-feedback 0;
#X obj 370 289 lop~ 2000;
#X connect 0 0 1 0;
#X connect 1 0 2 0;
#X connect 2 0 10 0;
#X connect 3 0 0 0;
#X connect 4 0 6 1;
#X connect 4 0 9 0;
#X connect 5 0 6 0;
#X connect 6 0 3 0;
#X connect 7 0 8 1;
#X connect 8 0 6 0;
#X connect 9 0 8 0;
#X connect 10 0 11 0;
#X connect 11 0 13 0;
#X connect 11 0 18 0;
#X connect 12 0 11 1;
#X connect 14 0 5 0;
#X connect 15 0 12 0;
#X connect 17 0 10 1;
#X connect 19 0 22 0;
#X connect 20 0 19 1;
#X connect 21 0 19 0;
#X connect 22 0 1 1;
