#N canvas 317 92 1262 721 12;
#X obj 144 250 *~;
#X obj 324 38 vsl 15 120 0 1 0 0 empty empty empty 0 -9 0 12 #fcfcfc #000000 #000000 0 1;
#X obj 138 317 dac~;
#X obj 276 284 metro 100;
#X obj 276 249 tgl 19 0 empty empty empty 0 -10 0 12 #fcfcfc #000000 #000000 0 1;
#N canvas 4 52 1920 989 fft 0;
#X obj 163 92 inlet~;
#X obj 298 92 inlet;
#X obj 163 122 rfft~;
#X obj 163 155 *~;
#X obj 195 155 *~;
#X obj 163 185 sqrt~;
#X obj 298 301 tabwrite~ E01-spectrum;
#X obj 163 222 biquad~ 0 0 0 0 1;
#X text 53 122 Fourier series;
#X text 36 10 This subpatch computes the spectrum of the incoming signal with a (rectangular windowed) FFT. FFTs aren't properly introduced until much later., f 66;
#X text 31 93 signal to analyze;
#X text 355 87 "bang" into this inlet to graph it, f 18;
#X obj 354 214 block~ 4096;
#X text 79 214 delay two samples for better graphing, f 10;
#X text 86 162 calculate magnitude, f 9;
#X text 351 174 FFT Window size of 4096, f 12;
#X connect 0 0 2 0;
#X connect 1 0 6 0;
#X connect 2 0 3 0;
#X connect 2 0 3 1;
#X connect 2 1 4 0;
#X connect 2 1 4 1;
#X connect 3 0 5 0;
#X connect 4 0 5 0;
#X connect 5 0 7 0;
#X connect 7 0 6 0;
#X restore 237 314 pd fft;
#N canvas 0 0 450 300 (subpatch) 0;
#X array E01-spectrum 90 float 0;
#X coords 0 50 89 0 199 100 1 0 0;
#X restore 396 171 graph;
#X obj 64 17 noise~;
#X floatatom 145 41 0 0 0 0 - - - 0;
#X floatatom 167 92 0 0 0 0 - - - 0;
#X obj 167 117 trigger bang float;
#X obj 144 204 biquad~;
#X obj 148 18 hsl 128 17 20 20000 1 1 empty empty frequency 5 9 0 10 #c4c4fc #000000 #000000 9300 0;
#X obj 170 70 hsl 128 17 0 300 0 1 empty empty bandwidth 5 9 0 10 #fce0c4 #000000 #000000 8200 0;
#X obj 144 155 notch;
#X connect 0 0 2 0;
#X connect 0 0 2 1;
#X connect 0 0 5 0;
#X connect 1 0 0 1;
#X connect 3 0 5 1;
#X connect 4 0 3 0;
#X connect 7 0 11 0;
#X connect 8 0 14 0;
#X connect 9 0 10 0;
#X connect 10 0 14 0;
#X connect 10 1 14 1;
#X connect 11 0 0 0;
#X connect 12 0 8 0;
#X connect 13 0 9 0;
#X connect 14 0 11 0;
#X coords 0 0 0.5 0.5 0 0 0;
